<svg width="55" height="55" viewBox="0 0 55 55" fill="none" xmlns="http://www.w3.org/2000/svg">
<path d="M6.31369 33.7239L7.49848 38.1514C8.88265 43.3192 9.57702 45.9042 11.1468 47.5794C12.3858 48.9012 13.9887 49.8263 15.7531 50.2377C17.9897 50.7602 20.5747 50.0681 25.7447 48.6839C30.9101 47.2998 33.4951 46.6077 35.1704 45.0379C35.3094 44.9065 35.4438 44.7721 35.5737 44.6346C34.7932 44.5642 34.0174 44.4495 33.2499 44.2908C31.6549 43.9746 29.7597 43.4658 27.5185 42.8654L27.2733 42.7989L27.216 42.7852C24.7776 42.1298 22.7404 41.5844 21.1133 40.9977C19.4014 40.3789 17.8476 39.6158 16.5254 38.3783C14.7065 36.6742 13.4337 34.4692 12.8679 32.0419C12.4554 30.2796 12.5745 28.5517 12.8954 26.7619C13.2024 25.0454 13.7524 22.9875 14.4124 20.5239L15.6385 15.9544L15.6797 15.7939C11.2797 16.9787 8.96286 17.68 7.41827 19.126C6.09482 20.3659 5.16889 21.9706 4.75765 23.7369C4.23515 25.9712 4.92723 28.5562 6.31369 33.7239Z" fill="url(#paint0_linear_125_121)"/>
<path fill-rule="evenodd" clip-rule="evenodd" d="M47.7352 24.5554L46.5482 28.9829C45.1617 34.1506 44.4696 36.7356 42.8998 38.4108C41.6611 39.7334 40.0582 40.6593 38.2936 41.0714C38.072 41.1233 37.8467 41.1631 37.6175 41.1906C35.5207 41.4495 32.9609 40.7643 28.3042 39.5176C23.1365 38.1312 20.5515 37.4391 18.8763 35.8693C17.5532 34.63 16.6273 33.0262 16.2157 31.2608C15.6932 29.0241 16.3852 26.4414 17.7717 21.2737L18.9565 16.8462L19.5157 14.7722C20.5584 10.9543 21.2596 8.85286 22.6048 7.41598C23.8438 6.09415 25.4467 5.16909 27.2111 4.75765C29.4477 4.23515 32.0327 4.92723 37.2027 6.31369C42.3682 7.69786 44.9532 8.38994 46.6284 9.95744C47.9518 11.1974 48.8777 12.802 49.289 14.5683C49.8115 16.8049 49.1194 19.3876 47.7352 24.5554ZM25.325 22.4699C25.3835 22.2519 25.4844 22.0475 25.6219 21.8684C25.7594 21.6894 25.9309 21.5391 26.1264 21.4263C26.322 21.3136 26.5379 21.2404 26.7617 21.2111C26.9856 21.1817 27.213 21.1968 27.4311 21.2554L38.4998 24.2231C38.7236 24.2761 38.9345 24.3736 39.1199 24.5096C39.3054 24.6457 39.4616 24.8175 39.5794 25.0151C39.6972 25.2126 39.7742 25.4318 39.8058 25.6596C39.8373 25.8874 39.8228 26.1192 39.7632 26.3414C39.7035 26.5635 39.5999 26.7714 39.4584 26.9527C39.3169 27.134 39.1405 27.2851 38.9395 27.397C38.7386 27.5089 38.5172 27.5794 38.2886 27.6042C38.0599 27.629 37.8286 27.6076 37.6084 27.5414L26.5396 24.576C26.0997 24.4578 25.7247 24.1699 25.497 23.7754C25.2693 23.381 25.2074 22.91 25.325 22.4699ZM23.5467 29.1135C23.6649 28.6736 23.9528 28.2986 24.3472 28.0709C24.7417 27.8431 25.2104 27.7813 25.6504 27.8989L32.2917 29.6795C32.5166 29.7314 32.7287 29.8281 32.9154 29.9637C33.1021 30.0993 33.2595 30.2712 33.3784 30.469C33.4973 30.6668 33.5751 30.8865 33.6072 31.115C33.6393 31.3435 33.6251 31.5762 33.5654 31.7991C33.5056 32.022 33.4016 32.2306 33.2595 32.4125C33.1175 32.5943 32.9402 32.7457 32.7384 32.8575C32.5365 32.9694 32.3142 33.0395 32.0847 33.0636C31.8552 33.0877 31.6232 33.0653 31.4025 32.9979L24.7613 31.2195C24.5432 31.161 24.3388 31.0601 24.1598 30.9226C23.9807 30.7851 23.8305 30.6137 23.7177 30.4181C23.6049 30.2225 23.5317 30.0067 23.5024 29.7828C23.4731 29.559 23.4881 29.3315 23.5467 29.1135Z" fill="url(#paint1_linear_125_121)"/>
<defs>
<linearGradient id="paint0_linear_125_121" x1="20.0786" y1="15.7939" x2="20.0786" y2="50.4119" gradientUnits="userSpaceOnUse">
<stop stop-color="#3A7BD5"/>
<stop offset="1" stop-color="#9D50BB"/>
</linearGradient>
<linearGradient id="paint1_linear_125_121" x1="32.7522" y1="4.5835" x2="32.7522" y2="41.2449" gradientUnits="userSpaceOnUse">
<stop stop-color="#3A7BD5"/>
<stop offset="1" stop-color="#9D50BB"/>
</linearGradient>
</defs>
</svg>
